ISO-10303-21;
HEADER;
FILE_DESCRIPTION(('Open CASCADE Model'),'2;1');
FILE_NAME('Open CASCADE Shape Model','2026-10-07T23:29:01',('Author'),(
    'Open CASCADE'),'Open CASCADE STEP processor 7.9','Open CASCADE 7.9'
  ,'Unknown');
FILE_SCHEMA(('AUTOMOTIVE_DESIGN { 1 0 10303 214 1 1 1 1 }'));
ENDSEC;
DATA;
#1 = APPLICATION_PROTOCOL_DEFINITION('international standard',
  'automotive_design',2000,#2);
#2 = APPLICATION_CONTEXT(
  'core data for automotive mechanical design processes');
#3 = SHAPE_DEFINITION_REPRESENTATION(#4,#10);
#4 = PRODUCT_DEFINITION_SHAPE('','',#5);
#5 = PRODUCT_DEFINITION('design','',#6,#9);
#6 = PRODUCT_DEFINITION_FORMATION('','',#7);
#7 = PRODUCT('Open CASCADE STEP translator 7.9 2',
  'Open CASCADE STEP translator 7.9 2','',(#8));
#8 = PRODUCT_CONTEXT('',#2,'mechanical');
#9 = PRODUCT_DEFINITION_CONTEXT('part definition',#2,'design');
#10 = ADVANCED_BREP_SHAPE_REPRESENTATION('',(#11,#15),#138);
#11 = AXIS2_PLACEMENT_3D('',#12,#13,#14);
#12 = CARTESIAN_POINT('',(0.,0.,0.));
#13 = DIRECTION('',(0.,0.,1.));
#14 = DIRECTION('',(1.,0.,-0.));
#15 = MANIFOLD_SOLID_BREP('',#16);
#16 = CLOSED_SHELL('',(#17,#130,#134));
#17 = ADVANCED_FACE('',(#18),#31,.T.);
#18 = FACE_BOUND('',#19,.T.);
#19 = EDGE_LOOP('',(#20,#80,#102,#129));
#20 = ORIENTED_EDGE('',*,*,#21,.T.);
#21 = EDGE_CURVE('',#22,#22,#24,.T.);
#22 = VERTEX_POINT('',#23);
#23 = CARTESIAN_POINT('',(34.883211678832,-295.,8.));
#24 = SURFACE_CURVE('',#25,(#30,#68),.PCURVE_S1.);
#25 = ELLIPSE('',#26,34.883211678832,31.897810218978);
#26 = AXIS2_PLACEMENT_3D('',#27,#28,#29);
#27 = CARTESIAN_POINT('',(0.,-295.,8.));
#28 = DIRECTION('',(-0.,1.,1.110223024625E-16));
#29 = DIRECTION('',(1.,0.,0.));
#30 = PCURVE('',#31,#62);
#31 = B_SPLINE_SURFACE_WITH_KNOTS('',14,1,(
    (#32,#33)
    ,(#34,#35)
    ,(#36,#37)
    ,(#38,#39)
    ,(#40,#41)
    ,(#42,#43)
    ,(#44,#45)
    ,(#46,#47)
    ,(#48,#49)
    ,(#50,#51)
    ,(#52,#53)
    ,(#54,#55)
    ,(#56,#57)
    ,(#58,#59)
    ,(#60,#61
    )),.UNSPECIFIED.,.T.,.F.,.F.,(15,15),(2,2),(0.,6.28318530718),(0.,1.
    ),.PIECEWISE_BEZIER_KNOTS.);
#32 = CARTESIAN_POINT('',(34.883211678832,-295.,8.));
#33 = CARTESIAN_POINT('',(27.,-160.,8.));
#34 = CARTESIAN_POINT('',(34.883211678833,-295.,-6.315703749944));
#35 = CARTESIAN_POINT('',(27.000000000005,-159.9999999999,
    -3.219973762828));
#36 = CARTESIAN_POINT('',(27.316542100935,-295.,-20.63141278412));
#37 = CARTESIAN_POINT('',(21.143312247597,-160.0000000001,
    -14.43995166718));
#38 = CARTESIAN_POINT('',(12.183193271842,-295.,-31.32423755127));
#39 = CARTESIAN_POINT('',(9.42992925566,-159.9999999997,-22.82048366433)
  );
#40 = CARTESIAN_POINT('',(-8.25373815928,-295.,-34.77169703474));
#41 = CARTESIAN_POINT('',(-6.38848659797,-160.0000000004,-25.52243989564
    ));
#42 = CARTESIAN_POINT('',(-29.46848818315,-295.,-28.6498458585));
#43 = CARTESIAN_POINT('',(-22.80894283085,-159.9999999993,
    -20.72442152527));
#44 = CARTESIAN_POINT('',(-45.66357877514,-295.,-13.24028118105));
#45 = CARTESIAN_POINT('',(-35.34412594482,-160.0000000006,
    -8.647131131589));
#46 = CARTESIAN_POINT('',(-51.7607072206,-295.,7.999999999572));
#47 = CARTESIAN_POINT('',(-40.06337225526,-159.9999999994,7.999999999651
    ));
#48 = CARTESIAN_POINT('',(-45.66357877518,-295.,29.24028118184));
#49 = CARTESIAN_POINT('',(-35.34412594483,-160.0000000003,
    24.647131132229));
#50 = CARTESIAN_POINT('',(-29.46848818309,-295.,44.649845857903));
#51 = CARTESIAN_POINT('',(-22.80894283084,-159.9999999997,36.72442152478
    ));
#52 = CARTESIAN_POINT('',(-8.253738159326,-295.,50.771697035117));
#53 = CARTESIAN_POINT('',(-6.388486597976,-160.0000000001,
    41.522439895948));
#54 = CARTESIAN_POINT('',(12.183193271868,-295.,47.32423755109));
#55 = CARTESIAN_POINT('',(9.429929255664,-159.9999999999,38.820483664181
    ));
#56 = CARTESIAN_POINT('',(27.316542100925,-295.,36.631412784189));
#57 = CARTESIAN_POINT('',(21.143312247596,-160.,30.439951667243));
#58 = CARTESIAN_POINT('',(34.883211678835,-295.,22.315703749929));
#59 = CARTESIAN_POINT('',(27.000000000005,-159.9999999999,
    19.219973762816));
#60 = CARTESIAN_POINT('',(34.883211678832,-295.,8.));
#61 = CARTESIAN_POINT('',(27.,-160.,8.));
#62 = DEFINITIONAL_REPRESENTATION('',(#63),#67);
#63 = LINE('',#64,#65);
#64 = CARTESIAN_POINT('',(0.,0.));
#65 = VECTOR('',#66,1.);
#66 = DIRECTION('',(1.,0.));
#67 = ( GEOMETRIC_REPRESENTATION_CONTEXT(2) 
PARAMETRIC_REPRESENTATION_CONTEXT() REPRESENTATION_CONTEXT('2D SPACE',''
  ) );
#68 = PCURVE('',#69,#74);
#69 = PLANE('',#70);
#70 = AXIS2_PLACEMENT_3D('',#71,#72,#73);
#71 = CARTESIAN_POINT('',(0.,-295.,8.));
#72 = DIRECTION('',(0.,1.,1.110223024625E-16));
#73 = DIRECTION('',(1.,0.,0.));
#74 = DEFINITIONAL_REPRESENTATION('',(#75),#79);
#75 = ELLIPSE('',#76,34.883211678832,31.897810218978);
#76 = AXIS2_PLACEMENT_2D('',#77,#78);
#77 = CARTESIAN_POINT('',(0.,0.));
#78 = DIRECTION('',(1.,0.));
#79 = ( GEOMETRIC_REPRESENTATION_CONTEXT(2) 
PARAMETRIC_REPRESENTATION_CONTEXT() REPRESENTATION_CONTEXT('2D SPACE',''
  ) );
#80 = ORIENTED_EDGE('',*,*,#81,.T.);
#81 = EDGE_CURVE('',#22,#82,#84,.T.);
#82 = VERTEX_POINT('',#83);
#83 = CARTESIAN_POINT('',(27.,-160.,8.));
#84 = SEAM_CURVE('',#85,(#88,#95),.PCURVE_S1.);
#85 = B_SPLINE_CURVE_WITH_KNOTS('',1,(#86,#87),.UNSPECIFIED.,.F.,.F.,(2,
    2),(0.,1.),.PIECEWISE_BEZIER_KNOTS.);
#86 = CARTESIAN_POINT('',(34.883211678832,-295.,8.));
#87 = CARTESIAN_POINT('',(27.,-160.,8.));
#88 = PCURVE('',#31,#89);
#89 = DEFINITIONAL_REPRESENTATION('',(#90),#94);
#90 = LINE('',#91,#92);
#91 = CARTESIAN_POINT('',(6.28318530718,0.));
#92 = VECTOR('',#93,1.);
#93 = DIRECTION('',(0.,1.));
#94 = ( GEOMETRIC_REPRESENTATION_CONTEXT(2) 
PARAMETRIC_REPRESENTATION_CONTEXT() REPRESENTATION_CONTEXT('2D SPACE',''
  ) );
#95 = PCURVE('',#31,#96);
#96 = DEFINITIONAL_REPRESENTATION('',(#97),#101);
#97 = LINE('',#98,#99);
#98 = CARTESIAN_POINT('',(0.,0.));
#99 = VECTOR('',#100,1.);
#100 = DIRECTION('',(0.,1.));
#101 = ( GEOMETRIC_REPRESENTATION_CONTEXT(2) 
PARAMETRIC_REPRESENTATION_CONTEXT() REPRESENTATION_CONTEXT('2D SPACE',''
  ) );
#102 = ORIENTED_EDGE('',*,*,#103,.F.);
#103 = EDGE_CURVE('',#82,#82,#104,.T.);
#104 = SURFACE_CURVE('',#105,(#110,#117),.PCURVE_S1.);
#105 = ELLIPSE('',#106,27.,25.);
#106 = AXIS2_PLACEMENT_3D('',#107,#108,#109);
#107 = CARTESIAN_POINT('',(0.,-160.,8.));
#108 = DIRECTION('',(-0.,1.,1.110223024625E-16));
#109 = DIRECTION('',(1.,0.,0.));
#110 = PCURVE('',#31,#111);
#111 = DEFINITIONAL_REPRESENTATION('',(#112),#116);
#112 = LINE('',#113,#114);
#113 = CARTESIAN_POINT('',(0.,1.));
#114 = VECTOR('',#115,1.);
#115 = DIRECTION('',(1.,0.));
#116 = ( GEOMETRIC_REPRESENTATION_CONTEXT(2) 
PARAMETRIC_REPRESENTATION_CONTEXT() REPRESENTATION_CONTEXT('2D SPACE',''
  ) );
#117 = PCURVE('',#118,#123);
#118 = PLANE('',#119);
#119 = AXIS2_PLACEMENT_3D('',#120,#121,#122);
#120 = CARTESIAN_POINT('',(0.,-160.,8.));
#121 = DIRECTION('',(0.,1.,1.110223024625E-16));
#122 = DIRECTION('',(1.,0.,0.));
#123 = DEFINITIONAL_REPRESENTATION('',(#124),#128);
#124 = ELLIPSE('',#125,27.,25.);
#125 = AXIS2_PLACEMENT_2D('',#126,#127);
#126 = CARTESIAN_POINT('',(0.,-1.42108547152E-14));
#127 = DIRECTION('',(1.,0.));
#128 = ( GEOMETRIC_REPRESENTATION_CONTEXT(2) 
PARAMETRIC_REPRESENTATION_CONTEXT() REPRESENTATION_CONTEXT('2D SPACE',''
  ) );
#129 = ORIENTED_EDGE('',*,*,#81,.F.);
#130 = ADVANCED_FACE('',(#131),#69,.F.);
#131 = FACE_BOUND('',#132,.F.);
#132 = EDGE_LOOP('',(#133));
#133 = ORIENTED_EDGE('',*,*,#21,.T.);
#134 = ADVANCED_FACE('',(#135),#118,.T.);
#135 = FACE_BOUND('',#136,.T.);
#136 = EDGE_LOOP('',(#137));
#137 = ORIENTED_EDGE('',*,*,#103,.T.);
#138 = ( GEOMETRIC_REPRESENTATION_CONTEXT(3) 
GLOBAL_UNCERTAINTY_ASSIGNED_CONTEXT((#142)) GLOBAL_UNIT_ASSIGNED_CONTEXT
((#139,#140,#141)) REPRESENTATION_CONTEXT('Context #1',
  '3D Context with UNIT and UNCERTAINTY') );
#139 = ( LENGTH_UNIT() NAMED_UNIT(*) SI_UNIT(.MILLI.,.METRE.) );
#140 = ( NAMED_UNIT(*) PLANE_ANGLE_UNIT() SI_UNIT($,.RADIAN.) );
#141 = ( NAMED_UNIT(*) SI_UNIT($,.STERADIAN.) SOLID_ANGLE_UNIT() );
#142 = UNCERTAINTY_MEASURE_WITH_UNIT(LENGTH_MEASURE(1.E-07),#139,
  'distance_accuracy_value','confusion accuracy');
#143 = PRODUCT_RELATED_PRODUCT_CATEGORY('part',$,(#7));
ENDSEC;
END-ISO-10303-21;
